<?xml version="1.0" standalone="no"?>
<!DOCTYPE svg PUBLIC "-//W3C//DTD SVG 20010904//EN"
 "http://www.w3.org/TR/2001/REC-SVG-20010904/DTD/svg10.dtd">
<svg version="1.0" xmlns="http://www.w3.org/2000/svg"
 width="400.000000pt" height="400.000000pt" viewBox="0 0 400.000000 400.000000"
 preserveAspectRatio="xMidYMid meet">
<metadata>
Created by potrace 1.11, written by Peter Selinger 2001-2013
</metadata>
<g transform="translate(0.000000,400.000000) scale(0.100000,-0.100000)"
fill="#000000" stroke="none">
<path d="M740 3384 c-11 -26 -18 -49 -16 -52 14 -13 345 -82 400 -82 7 0 5
-42 -10 -165 -10 -83 -44 -284 -69 -405 -15 -69 -28 -134 -30 -145 -12 -55
-66 -285 -121 -515 -14 -58 -27 -112 -29 -120 -47 -212 -189 -707 -251 -872
-27 -71 -29 -73 -109 -83 -74 -9 -214 -35 -315 -59 l-55 -12 -3 -52 c-3 -48
-2 -51 20 -47 234 36 1032 36 1304 0 27 -4 32 -1 44 33 7 20 15 42 17 49 3 6
-10 15 -29 19 -18 4 -37 9 -43 10 -9 2 -165 29 -223 39 -13 2 -54 7 -91 11
-38 3 -73 9 -78 13 -7 4 -7 32 -2 76 16 127 23 175 46 295 9 47 17 94 19 105
2 18 39 197 50 250 3 11 8 38 13 60 5 22 21 92 35 155 15 63 30 126 32 140 6
31 116 471 144 577 62 232 187 634 203 649 3 4 43 9 142 19 50 5 132 18 235
35 30 5 73 12 95 16 22 3 41 7 41 7 1 1 5 24 9 51 l7 49 -69 -7 c-288 -29
-1009 -29 -1251 0 l-42 5 -20 -47z"/>
<path d="M2668 3404 c-2 -2 -25 -6 -51 -9 -121 -15 -357 -92 -357 -117 0 -5 4
-7 8 -4 5 3 22 7 38 10 69 12 223 35 274 41 62 7 282 7 320 1 14 -3 46 -7 71
-10 102 -13 260 -64 353 -114 105 -57 215 -168 245 -245 31 -85 39 -167 26
-267 -16 -125 -112 -308 -209 -400 -27 -25 -58 -54 -70 -66 -158 -153 -438
-303 -761 -410 -145 -47 -140 -65 10 -38 144 25 210 42 332 85 549 193 915
644 837 1029 -54 262 -285 439 -661 504 -69 12 -395 20 -405 10z"/>
<path d="M2658 3285 c-2 -2 -30 -5 -63 -6 -52 -1 -169 -16 -270 -35 -57 -10
-235 -75 -292 -106 -105 -57 -236 -158 -222 -172 3 -3 46 14 95 38 78 38 213
90 266 102 10 2 26 6 36 8 9 2 35 9 57 14 107 28 258 44 407 44 87 -1 162 -3
166 -6 5 -3 33 -8 63 -11 135 -15 300 -79 378 -147 160 -138 173 -398 28 -581
-37 -47 -29 -57 17 -22 46 35 107 115 144 190 119 242 42 447 -216 573 -45 23
-84 41 -85 40 -1 0 -33 9 -72 20 -90 26 -183 41 -293 48 -48 3 -99 7 -114 9
-15 1 -28 2 -30 0z"/>
<path d="M2647 3104 c-1 -1 -51 -4 -112 -8 -284 -17 -525 -85 -753 -212 -35
-20 -61 -38 -59 -41 3 -2 61 14 129 36 125 41 254 74 268 69 10 -4 -87 -184
-250 -463 -238 -409 -346 -626 -411 -830 -82 -253 -84 -459 -8 -620 50 -106
85 -130 55 -38 -39 120 -38 245 4 448 44 212 142 433 370 830 168 293 266 484
316 612 32 81 39 93 60 93 13 0 24 -2 24 -5 0 -8 -64 -172 -87 -226 -11 -24
-42 -93 -68 -154 -47 -106 -108 -228 -173 -345 -36 -65 -154 -328 -172 -383
-6 -21 -10 -41 -7 -44 25 -25 345 458 493 745 80 155 133 316 137 420 0 13 15
15 152 15 269 0 461 -56 571 -169 116 -118 104 -232 -40 -379 -93 -94 -211
-177 -421 -295 -94 -52 -579 -300 -588 -300 -3 0 31 60 74 133 208 348 350
700 353 874 2 126 -14 125 -57 -5 -56 -173 -139 -335 -397 -777 -65 -110 -132
-229 -149 -264 -35 -68 -34 -74 19 -88 103 -26 324 -188 509 -374 151 -150
321 -272 321 -230 0 14 -149 237 -205 306 -75 95 -176 194 -230 229 -80 52
-197 95 -293 110 -34 5 -57 16 -33 16 13 0 263 98 442 173 108 46 336 157 399
195 19 12 49 29 65 38 120 67 262 182 337 275 151 186 113 390 -96 524 -54 34
-168 79 -227 89 -51 9 -256 25 -262 20z"/>
<path d="M2705 2001 c-60 -22 -213 -77 -338 -123 l-229 -85 50 -6 c81 -9 182
-68 273 -157 37 -36 171 -187 269 -301 148 -174 294 -291 418 -335 90 -31 103
-18 38 43 -27 26 -86 94 -131 152 -85 110 -289 317 -422 431 -71 61 -118 93
-189 132 l-76 41 94 39 c146 61 310 144 348 177 46 40 28 38 -105 -8z"/>
<path d="M1720 1705 c0 -2 23 -16 50 -30 28 -14 50 -28 50 -31 0 -3 -9 -24
-21 -47 -21 -43 -116 -320 -123 -363 -3 -13 0 -24 5 -24 8 0 78 103 119 176
66 117 114 194 120 194 14 0 158 -146 246 -250 139 -165 209 -238 297 -313 96
-81 277 -162 430 -192 91 -18 295 -13 392 10 39 9 76 17 83 19 7 1 17 7 22 12
7 7 -30 9 -107 6 -189 -7 -409 41 -575 124 -106 53 -209 143 -338 294 -90 105
-224 238 -297 293 -78 60 -142 92 -218 112 -57 14 -135 20 -135 10z"/>
<path d="M1604 1449 c-65 -126 -102 -348 -70 -423 14 -35 69 -86 91 -86 12 0
12 7 -1 43 -18 48 -20 209 -5 310 19 122 23 175 12 181 -5 4 -18 -8 -27 -25z"/>
<path d="M2969 960 c78 -66 332 -81 463 -29 36 15 27 29 -15 22 -40 -6 -277
-5 -314 2 -16 2 -52 9 -82 15 -73 14 -80 12 -52 -10z"/>
</g>
</svg>
